<?xml version="1.0" encoding="utf-8"?>
<!-- Generator: Adobe Illustrator 27.5.0, SVG Export Plug-In . SVG Version: 6.00 Build 0)  -->
<svg version="1.1" xmlns="http://www.w3.org/2000/svg" xmlns:xlink="http://www.w3.org/1999/xlink" x="0px" y="0px"
	 viewBox="0 0 500 500" style="enable-background:new 0 0 500 500;" xml:space="preserve">
<g id="Background_Complete">
	<g>
		<g>
			<g>
				<path style="fill:#EBEBEB;" d="M450.056,142.19l-89.598,19.844c-3.661,0.811-7.287-1.5-8.098-5.161l-18.669-84.294
					c-0.811-3.661,1.5-7.287,5.161-8.097l89.598-19.844c3.661-0.811,7.287,1.5,8.098,5.161l18.669,84.294
					C456.028,137.753,453.717,141.379,450.056,142.19z"/>
			</g>
		</g>
		<g>
			<g>
				<g>
					<g>
						<g>
							<g>
								<path style="fill:#FAFAFA;" d="M414.935,114.199c0.003,0.015-0.231,0.083-0.682,0.199c-0.492,0.121-1.151,0.283-1.981,0.487
									c-1.772,0.415-4.268,1-7.353,1.722c-6.285,1.428-14.959,3.4-24.72,5.618l-0.202,0.046l-0.073-0.195
									c-0.476-1.267-0.981-2.61-1.492-3.969c-4.33-11.632-8.195-22.013-10.72-28.797l0.175,0.095
									c-2.794,0.596-5.024,1.071-6.604,1.408c-0.738,0.148-1.322,0.266-1.761,0.354c-0.401,0.076-0.611,0.108-0.614,0.094
									c-0.003-0.014,0.2-0.074,0.595-0.176c0.435-0.108,1.014-0.251,1.744-0.431c1.572-0.369,3.792-0.891,6.573-1.544l0.128-0.03
									l0.047,0.125c2.564,6.77,6.488,17.129,10.884,28.735c0.51,1.36,1.014,2.703,1.489,3.97l-0.275-0.149
									c9.775-2.159,18.46-4.077,24.754-5.467c3.098-0.663,5.605-1.199,7.385-1.58c0.838-0.17,1.503-0.304,2-0.405
									C414.691,114.222,414.932,114.184,414.935,114.199z"/>
							</g>
						</g>
					</g>
					<g>
						<g>
							<g>
								<path style="fill:#FAFAFA;" d="M377.526,115.012c-0.002-0.007,0.056-0.026,0.17-0.059c0.137-0.036,0.304-0.08,0.509-0.134
									c0.483-0.118,1.143-0.278,1.982-0.483c1.768-0.412,4.285-1,7.431-1.734c6.385-1.452,15.316-3.484,25.654-5.835l-0.179,0.234
									c-0.207-4.492-0.432-9.349-0.664-14.376c-0.117-2.586-0.232-5.127-0.341-7.549l0.288,0.22
									c-12.02,2.661-22.63,5.009-30.276,6.702c-3.785,0.817-6.834,1.475-8.974,1.937c-1.028,0.212-1.837,0.38-2.423,0.501
									c-0.256,0.048-0.463,0.087-0.63,0.119c-0.142,0.024-0.216,0.033-0.217,0.026c-0.002-0.007,0.069-0.031,0.208-0.069
									c0.164-0.043,0.368-0.096,0.62-0.161c0.581-0.14,1.384-0.334,2.405-0.581c2.133-0.495,5.171-1.201,8.943-2.077
									c7.636-1.731,18.234-4.135,30.241-6.857l0.275-0.062l0.013,0.283c0.111,2.422,0.228,4.963,0.346,7.549
									c0.225,5.027,0.443,9.884,0.645,14.376l0.009,0.193l-0.188,0.041c-10.353,2.284-19.296,4.258-25.691,5.669
									c-3.158,0.679-5.685,1.222-7.46,1.603c-0.846,0.173-1.511,0.309-1.998,0.409c-0.208,0.039-0.378,0.07-0.518,0.096
									C377.588,115.012,377.527,115.019,377.526,115.012z"/>
							</g>
						</g>
					</g>
					<g>
						<g>
							<g>
								<path style="fill:#FAFAFA;" d="M390.96,129.487c-0.043,0.011-0.114-0.3-0.382-0.783c-0.265-0.474-0.788-1.132-1.682-1.52
									c-0.869-0.397-2.148-0.433-3.213,0.267c-1.064,0.662-1.781,2.113-1.447,3.543c0.308,1.435,1.576,2.442,2.82,2.587
									c1.262,0.179,2.403-0.4,3.02-1.13c0.643-0.733,0.835-1.551,0.872-2.093C390.985,129.806,390.917,129.495,390.96,129.487
									c0.02-0.007,0.154,0.293,0.175,0.876c0.019,0.571-0.128,1.469-0.799,2.306c-0.642,0.831-1.901,1.526-3.335,1.349
									c-1.413-0.136-2.88-1.276-3.231-2.92c-0.383-1.637,0.457-3.293,1.677-4.019c1.222-0.771,2.656-0.68,3.592-0.203
									c0.964,0.47,1.48,1.219,1.707,1.744C390.974,129.157,390.981,129.484,390.96,129.487z"/>
							</g>
						</g>
					</g>
					<g>
						<g>
							<g>
								<path style="fill:#FAFAFA;" d="M413.349,124.471c-0.043,0.011-0.114-0.3-0.382-0.783c-0.265-0.474-0.788-1.132-1.682-1.521
									c-0.869-0.397-2.148-0.433-3.213,0.267c-1.064,0.663-1.781,2.113-1.447,3.543c0.308,1.436,1.575,2.442,2.82,2.587
									c1.262,0.179,2.403-0.4,3.02-1.129c0.643-0.733,0.835-1.551,0.872-2.093C413.374,124.79,413.305,124.479,413.349,124.471
									c0.02-0.007,0.154,0.292,0.175,0.876c0.019,0.571-0.128,1.469-0.799,2.306c-0.642,0.831-1.901,1.526-3.335,1.349
									c-1.413-0.136-2.88-1.276-3.231-2.92c-0.383-1.637,0.457-3.293,1.677-4.019c1.222-0.771,2.656-0.68,3.592-0.203
									c0.964,0.47,1.48,1.219,1.707,1.744C413.363,124.14,413.37,124.468,413.349,124.471z"/>
							</g>
						</g>
					</g>
					<g>
						<g>
							<path style="fill:#FAFAFA;" d="M419.559,79.751c1.228,5.482-2.22,10.923-7.703,12.151c-5.483,1.228-10.923-2.22-12.151-7.703
								c-1.228-5.482,2.22-10.923,7.703-12.151C412.891,70.819,418.331,74.268,419.559,79.751z"/>
						</g>
					</g>
				</g>
				<g>
					<g>
						<g>
							<path style="fill:#E0E0E0;" d="M414.192,77.061c0.057,0.034-0.302,0.753-0.928,1.889c-0.626,1.136-1.519,2.688-2.531,4.388
								c-0.379,0.629-0.744,1.236-1.089,1.807l-0.114,0.19l-0.191-0.106c-2.568-1.42-4.391-2.506-4.339-2.601
								c0.051-0.095,1.96,0.832,4.556,2.198l-0.305,0.084c0.338-0.575,0.698-1.185,1.07-1.818c1.012-1.699,1.951-3.224,2.651-4.316
								C413.673,77.686,414.135,77.027,414.192,77.061z"/>
						</g>
					</g>
				</g>
			</g>
		</g>
	</g>
	<g>
		<g>
			<g>
				<path style="fill:#E0E0E0;" d="M72.285,194.377c-1.845-6.534-10.336-5.9-10.336-5.9l0.233,4.544
					c4.909-0.847,7.96,4.906,7.96,4.906L72.285,194.377z"/>
			</g>
		</g>
		<g>
			<g>
				<path style="fill:#E0E0E0;" d="M196.975,118.944c9.85,2.984,15.979-8.376,15.979-8.376l-5.993-3.415
					c-2.93,6.959-12.768,6.154-12.768,6.154L196.975,118.944z"/>
			</g>
		</g>
		<g>
			<g>
				<path style="fill:#E0E0E0;" d="M278.741,179.926c-1.906-5.432-9.058-4.447-9.058-4.447l0.437,3.833
					c4.109-0.975,6.995,3.732,6.995,3.732L278.741,179.926z"/>
			</g>
		</g>
		<g>
			<g>
				<path style="fill:#E0E0E0;" d="M165.762,52.683c-1.906-5.432-9.058-4.447-9.058-4.447l0.437,3.833
					c4.109-0.975,6.994,3.732,6.994,3.732L165.762,52.683z"/>
			</g>
		</g>
		<g>
			<g>
				<path style="fill:#EBEBEB;" d="M80.421,122.192c-1.906-5.432-9.058-4.448-9.058-4.448l0.437,3.833
					c4.109-0.976,6.994,3.732,6.994,3.732L80.421,122.192z"/>
			</g>
		</g>
		<g>
			<g>
				<path style="fill:#EBEBEB;" d="M62.49,71.409c-5.681,0.932-5.955,8.147-5.955,8.147l3.851,0.236
					c-0.246-4.216,4.891-6.239,4.891-6.239L62.49,71.409z"/>
			</g>
		</g>
		<g>
			<g>
				<path style="fill:#EBEBEB;" d="M21.592,240.394c9.85,2.984,15.978-8.377,15.978-8.377l-5.993-3.415
					c-2.93,6.959-12.768,6.154-12.768,6.154L21.592,240.394z"/>
			</g>
		</g>
		<g>
			<g>
				<path style="fill:#E0E0E0;" d="M302.2,119.572c0.666-4.561-4.774-6.52-4.774-6.52l-1.114,2.882
					c3.278,0.835,3.576,5.246,3.576,5.246L302.2,119.572z"/>
			</g>
		</g>
		<g>
			<g>
				<path style="fill:#EBEBEB;" d="M269.453,69.475c-3.841,2.549-1.667,7.907-1.667,7.907l2.889-1.095
					c-1.567-2.997,1.518-6.164,1.518-6.164L269.453,69.475z"/>
			</g>
		</g>
	</g>
	<g>
		<g>
			<g>
				<g>
					<polygon style="fill:#F5F5F5;" points="436.084,171.565 422.786,210.731 462.112,218.546 464.376,177.187 					"/>
				</g>
			</g>
		</g>
		<g>
			<g>
				<g>
					<g>
						<path style="fill:#FFFFFF;" d="M460.022,182.39c0.046,0.019-0.074,0.438-0.442,1.123c-0.369,0.681-0.987,1.639-1.98,2.632
							c-0.987,0.986-2.383,2.002-4.168,2.598c-1.776,0.609-3.903,0.724-6.004,0.304c-2.104-0.396-4.049-1.247-5.486-2.467
							c-1.457-1.204-2.323-2.725-2.815-4.029c-0.493-1.318-0.637-2.452-0.676-3.226c-0.035-0.778,0.041-1.207,0.091-1.203
							c0.126-0.015,0.032,1.744,1.07,4.234c0.531,1.22,1.387,2.61,2.766,3.7c1.359,1.106,3.18,1.884,5.186,2.264
							c2.004,0.399,3.988,0.308,5.66-0.226c1.679-0.522,3.025-1.431,4.016-2.328C459.223,183.932,459.917,182.325,460.022,182.39z"
							/>
					</g>
				</g>
			</g>
		</g>
	</g>
</g>
<g id="Background_Simple" style="display:none;">
	<g style="display:inline;">
		<path style="fill:#EBEBEB;" d="M462.579,168.715c-10.123-32.018-28.166-62.659-55.912-80.647
			c-25.8-16.727-58.946-20.98-87.97-11.288c-29.024,9.692-53.37,33.144-64.615,62.242c-6.025,15.592-8.391,32.402-13.389,48.37
			c-4.998,15.969-13.383,31.874-27.587,40.19c-15.929,9.326-35.829,7.266-53.562,2.454c-17.733-4.811-35.142-12.132-53.48-12.541
			c-37.993-0.847-67.195,33.919-75.46,71.952c-9.246,42.55-4.098,86.635,51.52,117.41c0.938,0.519,1.206,0.706,1.125,0.712
			c20.178,12.775,32.019,22.274,54.333,28.367c52.686,12.88,110.823,2.832,152.945,0c54.76-3.682,73.169-18.591,107.467-43.823
			c32.916-24.216,56.775-60.631,67.765-100.612C476.75,251.519,475.072,208.23,462.579,168.715z"/>
		<path style="fill:#EBEBEB;" d="M83.249,407.569c-0.374-0.237-0.745-0.473-1.125-0.712
			C78.813,405.579,82.98,407.588,83.249,407.569z"/>
	</g>
	<path style="display:inline;fill:#EBEBEB;" d="M175.099,60.327c-10.825-8.501-25.816-10.965-39.137-7.505
		c-11.567,3.005-22.377,10.84-26.484,22.063c-3.298,9.012-1.956,19.293,2.208,27.939c5.897,12.247,17.457,21.62,30.657,24.861
		c13.2,3.241,27.786,0.285,38.684-7.838l-1.847,0.745c6.627-4.549,7.841-13.856,9.908-23.654
		C191.93,83.47,185.924,68.828,175.099,60.327z"/>
</g>
<g id="Desk">
	<g>
		<g>
			<path style="fill:#263238;" d="M474.073,454.166c0,0.144-102.568,0.26-229.062,0.26c-126.538,0-229.084-0.117-229.084-0.26
				s102.546-0.26,229.084-0.26C371.505,453.906,474.073,454.022,474.073,454.166z"/>
		</g>
	</g>
</g>
<g id="Screen">
	<g>
		<g>
			<g>
				<rect x="32.757" y="145.836" style="fill:#FAFAFA;" width="243.854" height="190.896"/>
			</g>
			<g>
				<g>
					<path style="fill:#263238;" d="M276.611,336.732c-0.002-1.793-0.086-75.734-0.216-190.896l0.215,0.215
						c-69.49,0.013-153.443,0.028-243.833,0.045h-0.021l0.26-0.26c-0.01,68.838-0.019,133.934-0.027,190.896l-0.234-0.234
						C177.52,336.637,274.56,336.73,276.611,336.732c-2.05,0.002-99.091,0.095-243.854,0.234l-0.234,0l0-0.234
						c-0.008-56.962-0.017-122.058-0.027-190.896l0-0.261h0.261h0.021c90.39,0.017,174.343,0.032,243.833,0.045l0.216,0l0,0.216
						C276.697,260.998,276.613,334.941,276.611,336.732z"/>
				</g>
			</g>
		</g>
		<g>
			<path style="fill:#263238;" d="M78.905,239.826V243h-2.074V239.8l-3.469-5.761h2.202l2.394,3.981l2.394-3.981h2.036
				L78.905,239.826z"/>
			<path style="fill:#263238;" d="M81.833,239.557c0-2.074,1.6-3.546,3.79-3.546c2.189,0,3.776,1.472,3.776,3.546
				c0,2.074-1.587,3.546-3.776,3.546C83.433,243.103,81.833,241.631,81.833,239.557z M87.376,239.557
				c0-1.191-0.755-1.907-1.754-1.907c-0.999,0-1.767,0.717-1.767,1.907c0,1.191,0.768,1.908,1.767,1.908
				C86.621,241.464,87.376,240.747,87.376,239.557z"/>
			<path style="fill:#263238;" d="M97.665,236.113V243h-1.895v-0.819c-0.525,0.602-1.293,0.922-2.138,0.922
				c-1.728,0-2.944-0.973-2.944-3.098v-3.892h1.997v3.598c0,1.152,0.512,1.664,1.396,1.664c0.922,0,1.587-0.589,1.587-1.856v-3.405
				H97.665z"/>
			<path style="fill:#263238;" d="M103.794,236.011v1.843c-0.166-0.013-0.294-0.025-0.448-0.025c-1.101,0-1.831,0.602-1.831,1.92
				V243h-1.997v-6.888h1.907v0.909C101.912,236.356,102.731,236.011,103.794,236.011z"/>
			<path style="fill:#263238;" d="M108.232,238.519c0-2.663,2.074-4.634,4.903-4.634c2.816,0,4.903,1.959,4.903,4.634
				c0,2.676-2.087,4.635-4.903,4.635C110.306,243.154,108.232,241.182,108.232,238.519z M115.939,238.519
				c0-1.703-1.203-2.868-2.804-2.868c-1.6,0-2.804,1.165-2.804,2.868c0,1.703,1.204,2.868,2.804,2.868
				C114.735,241.387,115.939,240.223,115.939,238.519z"/>
			<path style="fill:#263238;" d="M123.73,236.011v1.843c-0.166-0.013-0.294-0.025-0.448-0.025c-1.101,0-1.831,0.602-1.831,1.92V243
				h-1.997v-6.888h1.907v0.909C121.848,236.356,122.668,236.011,123.73,236.011z"/>
			<path style="fill:#263238;" d="M131.87,233.501V243h-1.908v-0.794c-0.499,0.602-1.229,0.896-2.151,0.896
				c-1.946,0-3.444-1.383-3.444-3.546c0-2.164,1.498-3.546,3.444-3.546c0.845,0,1.562,0.268,2.061,0.832v-3.341H131.87z
				 M129.911,239.557c0-1.191-0.768-1.907-1.754-1.907c-0.999,0-1.767,0.717-1.767,1.907c0,1.191,0.768,1.908,1.767,1.908
				C129.143,241.464,129.911,240.747,129.911,239.557z"/>
			<path style="fill:#263238;" d="M140.418,240.12h-5.21c0.192,0.857,0.922,1.382,1.972,1.382c0.73,0,1.254-0.217,1.729-0.666
				l1.063,1.152c-0.64,0.729-1.601,1.114-2.842,1.114c-2.381,0-3.93-1.498-3.93-3.546c0-2.061,1.575-3.546,3.674-3.546
				c2.023,0,3.585,1.357,3.585,3.572C140.456,239.736,140.431,239.953,140.418,240.12z M135.182,238.955h3.393
				c-0.141-0.871-0.794-1.434-1.69-1.434C135.975,237.521,135.322,238.072,135.182,238.955z"/>
			<path style="fill:#263238;" d="M146.06,236.011v1.843c-0.167-0.013-0.294-0.025-0.448-0.025c-1.101,0-1.831,0.602-1.831,1.92V243
				h-1.997v-6.888h1.907v0.909C144.178,236.356,144.997,236.011,146.06,236.011z"/>
			<path style="fill:#263238;" d="M150.677,234.039c0-0.627,0.499-1.114,1.242-1.114c0.743,0,1.242,0.461,1.242,1.075
				c0,0.666-0.499,1.152-1.242,1.152C151.176,235.153,150.677,234.666,150.677,234.039z M150.921,236.113h1.997V243h-1.997V236.113z
				"/>
			<path style="fill:#263238;" d="M154.106,242.36l0.666-1.434c0.614,0.396,1.549,0.665,2.394,0.665
				c0.921,0,1.267-0.243,1.267-0.627c0-1.127-4.161,0.026-4.161-2.727c0-1.306,1.178-2.227,3.188-2.227
				c0.947,0,1.997,0.217,2.65,0.602l-0.665,1.421c-0.679-0.384-1.358-0.512-1.984-0.512c-0.896,0-1.28,0.282-1.28,0.64
				c0,1.178,4.161,0.038,4.161,2.752c0,1.28-1.191,2.189-3.252,2.189C155.924,243.103,154.746,242.783,154.106,242.36z"/>
			<path style="fill:#263238;" d="M164.766,238.519c0-2.701,2.074-4.634,4.865-4.634c1.549,0,2.842,0.563,3.687,1.587l-1.331,1.229
				c-0.602-0.691-1.357-1.05-2.253-1.05c-1.677,0-2.868,1.178-2.868,2.868c0,1.69,1.191,2.868,2.868,2.868
				c0.896,0,1.652-0.358,2.253-1.063l1.331,1.229c-0.845,1.037-2.138,1.601-3.7,1.601
				C166.839,243.154,164.766,241.221,164.766,238.519z"/>
			<path style="fill:#263238;" d="M173.812,239.557c0-2.074,1.6-3.546,3.79-3.546c2.189,0,3.776,1.472,3.776,3.546
				c0,2.074-1.587,3.546-3.776,3.546C175.412,243.103,173.812,241.631,173.812,239.557z M179.356,239.557
				c0-1.191-0.755-1.907-1.754-1.907c-0.999,0-1.767,0.717-1.767,1.907c0,1.191,0.768,1.908,1.767,1.908
				C178.6,241.464,179.356,240.747,179.356,239.557z"/>
			<path style="fill:#263238;" d="M189.747,239.057V243h-1.997v-3.636c0-1.114-0.512-1.626-1.395-1.626
				c-0.96,0-1.651,0.589-1.651,1.856V243h-1.997v-6.888h1.907v0.807c0.538-0.589,1.344-0.909,2.279-0.909
				C188.518,236.011,189.747,236.958,189.747,239.057z"/>
			<path style="fill:#263238;" d="M193.737,235.972v0.294h1.767v1.536h-1.715V243h-1.997v-5.198h-1.063v-1.536h1.063v-0.307
				c0-1.549,0.947-2.561,2.663-2.561c0.564,0,1.152,0.115,1.523,0.371l-0.525,1.447c-0.217-0.154-0.499-0.243-0.806-0.243
				C194.058,234.973,193.737,235.293,193.737,235.972z M197.284,234.039c0-0.627,0.499-1.114,1.242-1.114
				c0.743,0,1.242,0.461,1.242,1.075c0,0.666-0.499,1.152-1.242,1.152C197.783,235.153,197.284,234.666,197.284,234.039z
				 M197.527,236.113h1.997V243h-1.997V236.113z"/>
			<path style="fill:#263238;" d="M205.651,236.011v1.843c-0.166-0.013-0.294-0.025-0.448-0.025c-1.101,0-1.831,0.602-1.831,1.92
				V243h-1.997v-6.888h1.907v0.909C203.77,236.356,204.589,236.011,205.651,236.011z"/>
			<path style="fill:#263238;" d="M218.477,239.057V243h-1.998v-3.636c0-1.114-0.499-1.626-1.306-1.626
				c-0.896,0-1.523,0.576-1.523,1.805V243h-1.997v-3.636c0-1.114-0.474-1.626-1.306-1.626c-0.883,0-1.511,0.576-1.511,1.805V243
				h-1.997v-6.888h1.907v0.794c0.512-0.589,1.28-0.896,2.164-0.896c0.96,0,1.78,0.371,2.266,1.126
				c0.55-0.704,1.447-1.126,2.483-1.126C217.299,236.011,218.477,236.958,218.477,239.057z"/>
			<path style="fill:#263238;" d="M227.048,240.12h-5.211c0.192,0.857,0.922,1.382,1.972,1.382c0.73,0,1.254-0.217,1.729-0.666
				l1.063,1.152c-0.64,0.729-1.601,1.114-2.842,1.114c-2.381,0-3.93-1.498-3.93-3.546c0-2.061,1.575-3.546,3.674-3.546
				c2.023,0,3.585,1.357,3.585,3.572C227.087,239.736,227.061,239.953,227.048,240.12z M221.812,238.955h3.393
				c-0.141-0.871-0.794-1.434-1.69-1.434C222.606,237.521,221.953,238.072,221.812,238.955z"/>
			<path style="fill:#263238;" d="M235.43,233.501V243h-1.908v-0.794c-0.499,0.602-1.229,0.896-2.151,0.896
				c-1.946,0-3.444-1.383-3.444-3.546c0-2.164,1.498-3.546,3.444-3.546c0.845,0,1.562,0.268,2.061,0.832v-3.341H235.43z
				 M233.471,239.557c0-1.191-0.768-1.907-1.754-1.907c-0.998,0-1.767,0.717-1.767,1.907c0,1.191,0.768,1.908,1.767,1.908
				C232.703,241.464,233.471,240.747,233.471,239.557z"/>
			<path style="fill:#263238;" d="M236.975,241.938c0-0.653,0.512-1.14,1.229-1.14c0.717,0,1.229,0.487,1.229,1.14
				c0,0.64-0.512,1.165-1.229,1.165C237.486,243.103,236.975,242.578,236.975,241.938z M237.013,234.039h2.381l-0.397,5.851h-1.587
				L237.013,234.039z"/>
		</g>
		<g>
			<path style="fill:#263238;" d="M93.093,254.843h-2.924v-0.761h6.728v0.761h-2.924v7.56h-0.879V254.843z"/>
			<path style="fill:#263238;" d="M103.872,258.778v3.625h-0.844v-3.542c0-1.319-0.69-1.997-1.878-1.997
				c-1.343,0-2.188,0.832-2.188,2.259v3.28h-0.844v-8.819h0.844v3.661c0.464-0.726,1.284-1.142,2.342-1.142
				C102.826,256.103,103.872,256.983,103.872,258.778z"/>
			<path style="fill:#263238;" d="M110.882,258.528v3.875h-0.809v-0.975c-0.38,0.642-1.117,1.034-2.151,1.034
				c-1.415,0-2.282-0.737-2.282-1.818c0-0.963,0.618-1.771,2.413-1.771h1.985v-0.38c0-1.07-0.606-1.652-1.771-1.652
				c-0.809,0-1.569,0.285-2.08,0.736l-0.38-0.63c0.63-0.534,1.557-0.844,2.543-0.844
				C109.967,256.103,110.882,256.911,110.882,258.528z M110.038,260.525v-1.022h-1.961c-1.212,0-1.604,0.476-1.604,1.117
				c0,0.725,0.582,1.177,1.581,1.177C109.004,261.796,109.705,261.345,110.038,260.525z"/>
			<path style="fill:#263238;" d="M118.926,258.778v3.625h-0.844v-3.542c0-1.319-0.689-1.997-1.878-1.997
				c-1.343,0-2.188,0.832-2.188,2.259v3.28h-0.844v-6.252h0.808v1.153c0.452-0.761,1.296-1.201,2.377-1.201
				C117.88,256.103,118.926,256.983,118.926,258.778z"/>
			<path style="fill:#263238;" d="M123.536,259.265l-1.474,1.354v1.783h-0.844v-8.819h0.844v5.979l3.732-3.411h1.046l-2.675,2.556
				l2.924,3.696h-1.034L123.536,259.265z"/>
			<path style="fill:#263238;" d="M127.301,261.69l0.38-0.666c0.499,0.392,1.343,0.701,2.223,0.701c1.189,0,1.676-0.403,1.676-1.022
				c0-1.629-4.054-0.345-4.054-2.817c0-1.023,0.88-1.783,2.473-1.783c0.808,0,1.688,0.225,2.211,0.583l-0.369,0.677
				c-0.547-0.38-1.2-0.534-1.842-0.534c-1.129,0-1.628,0.44-1.628,1.034c0,1.688,4.053,0.416,4.053,2.816
				c0,1.082-0.951,1.783-2.579,1.783C128.811,262.462,127.813,262.129,127.301,261.69z"/>
			<path style="fill:#263238;" d="M138.15,254.843v3.269h4.303v0.761h-4.303v3.53h-0.88v-8.32h5.706v0.761H138.15z"/>
			<path style="fill:#263238;" d="M143.771,259.277c0-1.854,1.355-3.174,3.186-3.174s3.174,1.319,3.174,3.174
				s-1.343,3.185-3.174,3.185S143.771,261.131,143.771,259.277z M149.274,259.277c0-1.462-0.987-2.436-2.318-2.436
				c-1.332,0-2.33,0.975-2.33,2.436c0,1.462,0.998,2.436,2.33,2.436C148.287,261.713,149.274,260.739,149.274,259.277z"/>
			<path style="fill:#263238;" d="M155.001,256.103v0.82c-0.071,0-0.143-0.012-0.202-0.012c-1.308,0-2.104,0.832-2.104,2.306v3.186
				h-0.844v-6.252h0.808v1.225C153.051,256.543,153.848,256.103,155.001,256.103z"/>
			<path style="fill:#263238;" d="M162.759,259.527v2.876h-0.868v-2.876l-3.329-5.444h0.939l2.852,4.671l2.853-4.671h0.88
				L162.759,259.527z"/>
			<path style="fill:#263238;" d="M165.931,259.277c0-1.854,1.355-3.174,3.185-3.174c1.831,0,3.174,1.319,3.174,3.174
				s-1.343,3.185-3.174,3.185C167.286,262.462,165.931,261.131,165.931,259.277z M171.434,259.277c0-1.462-0.987-2.436-2.318-2.436
				c-1.331,0-2.329,0.975-2.329,2.436c0,1.462,0.998,2.436,2.329,2.436C170.447,261.713,171.434,260.739,171.434,259.277z"/>
			<path style="fill:#263238;" d="M179.645,256.151v6.252h-0.808v-1.141c-0.44,0.761-1.249,1.2-2.247,1.2
				c-1.593,0-2.639-0.892-2.639-2.686v-3.625h0.844v3.542c0,1.331,0.689,2.009,1.878,2.009c1.308,0,2.128-0.844,2.128-2.271v-3.28
				H179.645z"/>
			<path style="fill:#263238;" d="M185.157,256.103v0.82c-0.071,0-0.143-0.012-0.202-0.012c-1.308,0-2.104,0.832-2.104,2.306v3.186
				h-0.844v-6.252h0.808v1.225C183.208,256.543,184.005,256.103,185.157,256.103z"/>
			<path style="fill:#263238;" d="M189.327,258.242c0-2.425,1.854-4.231,4.374-4.231c2.497,0,4.363,1.795,4.363,4.231
				s-1.866,4.231-4.363,4.231C191.181,262.474,189.327,260.667,189.327,258.242z M197.184,258.242c0-1.985-1.486-3.447-3.483-3.447
				c-2.009,0-3.506,1.462-3.506,3.447c0,1.985,1.498,3.447,3.506,3.447C195.698,261.69,197.184,260.228,197.184,258.242z"/>
			<path style="fill:#263238;" d="M203.004,256.103v0.82c-0.071,0-0.142-0.012-0.202-0.012c-1.308,0-2.104,0.832-2.104,2.306v3.186
				h-0.844v-6.252h0.808v1.225C201.055,256.543,201.852,256.103,203.004,256.103z"/>
			<path style="fill:#263238;" d="M210.17,253.583v8.819h-0.808v-1.236c-0.511,0.845-1.379,1.296-2.413,1.296
				c-1.783,0-3.114-1.296-3.114-3.185c0-1.89,1.331-3.174,3.114-3.174c0.999,0,1.854,0.428,2.377,1.236v-3.756H210.17z
				 M209.339,259.277c0-1.462-0.999-2.436-2.318-2.436c-1.332,0-2.329,0.975-2.329,2.436c0,1.462,0.998,2.436,2.329,2.436
				C208.34,261.713,209.339,260.739,209.339,259.277z"/>
			<path style="fill:#263238;" d="M217.965,259.538h-5.23c0.095,1.308,1.094,2.175,2.46,2.175c0.761,0,1.439-0.273,1.914-0.82
				l0.475,0.547c-0.559,0.666-1.426,1.022-2.413,1.022c-1.95,0-3.281-1.331-3.281-3.185s1.295-3.174,3.055-3.174
				c1.759,0,3.031,1.296,3.031,3.174C217.977,259.348,217.965,259.443,217.965,259.538z M212.735,258.909h4.434
				c-0.107-1.225-0.998-2.08-2.223-2.08C213.733,256.828,212.842,257.684,212.735,258.909z"/>
			<path style="fill:#263238;" d="M222.848,256.103v0.82c-0.071,0-0.143-0.012-0.202-0.012c-1.308,0-2.104,0.832-2.104,2.306v3.186
				h-0.844v-6.252h0.808v1.225C220.899,256.543,221.695,256.103,222.848,256.103z"/>
		</g>
		<g>
			<g>
				<path style="fill:#E8505B;" d="M190.931,310.746h-72.494c-8.307,0-15.041-6.734-15.041-15.041l0,0
					c0-8.307,6.734-15.041,15.041-15.041h72.494c8.307,0,15.041,6.734,15.041,15.041l0,0
					C205.972,304.012,199.238,310.746,190.931,310.746z"/>
			</g>
			<g>
				<path style="fill:#FFFFFF;" d="M142.275,292.283h2.568c1.905,0,3.206,1.176,3.206,2.938c0,1.763-1.301,2.938-3.206,2.938h-2.568
					V292.283z M144.793,297.235c1.309,0,2.157-0.798,2.157-2.015s-0.848-2.014-2.157-2.014h-1.427v4.028H144.793z"/>
				<path style="fill:#FFFFFF;" d="M148.781,295.22c0-1.737,1.343-3.021,3.164-3.021c1.821,0,3.164,1.276,3.164,3.021
					c0,1.746-1.343,3.021-3.164,3.021C150.124,298.241,148.781,296.957,148.781,295.22z M154.01,295.22
					c0-1.2-0.881-2.064-2.064-2.064c-1.183,0-2.064,0.864-2.064,2.064s0.881,2.064,2.064,2.064
					C153.129,297.284,154.01,296.42,154.01,295.22z"/>
				<path style="fill:#FFFFFF;" d="M161.481,292.283v5.875h-0.898l-3.239-3.978v3.978h-1.083v-5.875h0.898l3.239,3.979v-3.979
					H161.481z"/>
				<path style="fill:#FFFFFF;" d="M167.459,297.242v0.915h-4.406v-5.875h4.288v0.915h-3.197v1.527h2.836v0.898h-2.836v1.619
					H167.459z"/>
			</g>
		</g>
		<g>
			<g>
				<path style="fill:#E8505B;" d="M156.704,218.985c-10.688,0-19.382-8.695-19.382-19.382c0-10.688,8.695-19.382,19.382-19.382
					s19.382,8.695,19.382,19.382C176.086,210.29,167.391,218.985,156.704,218.985z M156.704,182.221
					c-9.585,0-17.382,7.798-17.382,17.382c0,9.585,7.798,17.382,17.382,17.382c9.584,0,17.382-7.797,17.382-17.382
					C174.086,190.019,166.288,182.221,156.704,182.221z"/>
			</g>
			<g>
				<path style="fill:#E8505B;" d="M155.298,205.576c-0.236,0-0.471-0.083-0.661-0.249c-1.695-1.492-4.595-4.078-4.967-4.636
					c-0.306-0.46-0.182-1.081,0.277-1.387c0.454-0.304,1.064-0.185,1.376,0.261c0.27,0.339,2.107,2.021,3.95,3.655l9.814-9.315
					c0.399-0.38,1.033-0.365,1.414,0.037c0.38,0.4,0.364,1.034-0.037,1.414l-10.479,9.946
					C155.794,205.484,155.546,205.576,155.298,205.576z"/>
			</g>
		</g>
		<g>
			<g>
				<path style="fill:#263238;" d="M276.611,164.485c0,0.144-54.456,0.26-121.615,0.26c-67.183,0-121.627-0.117-121.627-0.26
					s54.444-0.26,121.627-0.26C222.155,164.224,276.611,164.341,276.611,164.485z"/>
			</g>
		</g>
		<g>
			<g>
				<circle style="fill:#263238;" cx="41.387" cy="154.898" r="1.415"/>
			</g>
			<g>
				<circle style="fill:#263238;" cx="46.667" cy="154.898" r="1.415"/>
			</g>
			<g>
				<path style="fill:#263238;" d="M53.282,154.898c0,0.782-0.634,1.415-1.415,1.415c-0.782,0-1.415-0.634-1.415-1.415
					c0-0.782,0.634-1.415,1.415-1.415C52.649,153.482,53.282,154.116,53.282,154.898z"/>
			</g>
		</g>
	</g>
</g>
<g id="Character">
	<g>
		<g>
			<path style="fill:#FFBE9D;" d="M436.917,274.085c0,0,12.136-7.384,14.871-5.214c3.948,3.132,5.263,8.418,5.263,8.418
				s6.41-24.449,12.527-23.522c3.509,0.532,1.788,3.266,0.215,6.698c-1.46,3.187-3.951,14.883-3.951,14.883
				s11.599-13.76,15.007-13.512c2.637,0.192,3.016,2.512-0.776,6.231c-3.792,3.72-10.094,15.438-10.094,15.438
				s8.125-7.574,11.482-7.616c2.677-0.033,4.406,1.826,0.942,4.834c-3.465,3.008-8.707,5.265-11.504,10.706
				c-3.447,6.707-10.797,23.424-10.797,23.424l-25.725-9.107c0,0-4.187-17.065-4.354-21.211c0,0,0.352-8.761,0.303-10.322
				c-0.05-1.56,4.088-1.96,5.344,1.035c1.255,2.995,0.686,6.137,1.195,8.129c0.509,1.992,1.416,3.838,2.872,4.729
				c1.456,0.891,5.162,0.952,6.109-0.149c0.947-1.101,2.095-4.306,2.344-6.278c0.25-1.972-0.072-5.085-0.072-5.085
				S437.438,280.933,436.917,274.085z"/>
		</g>
		<g>
			<g>
				<g>
					<path style="fill:#FFBE9D;" d="M147.875,353.71l-17.876-6.696c0,0-18.199-10.655-21.569-6.871c0,0-3.599-1.715-5.199,2.124
						c-0.927,2.224,2.131,5.454,2.131,5.454s-0.952,0.965,0.555,4.231c1.507,3.266,18.782,13.567,18.782,13.567
						s22.46,12.247,31.541,18.106l15.67-21.312l-2.179-0.814c0,0-1.294-10.621-5.641-13.453
						c-4.731-3.082-10.438-11.42-11.694-14.686c-1.256-3.266-7.286-1.759-6.281,5.025c1.005,6.784,6.281,8.542,5.779,13.065
						C151.393,355.971,147.875,353.71,147.875,353.71z"/>
				</g>
				<g>
					<g>
						<path style="fill:#EB996E;" d="M120.472,356.189c-0.07,0.125-3.553-1.693-7.777-4.06c-4.226-2.368-7.593-4.389-7.523-4.515
							c0.07-0.125,3.552,1.692,7.778,4.061C117.174,354.042,120.543,356.063,120.472,356.189z"/>
					</g>
				</g>
				<g>
					<g>
						<path style="fill:#EB996E;" d="M129.196,351.163c-0.03,0.064-1.252-0.43-3.208-1.277c-1.954-0.85-4.636-2.071-7.536-3.553
							c-2.899-1.484-5.454-2.966-7.241-4.137c-0.89-0.59-1.603-1.079-2.074-1.448c-0.475-0.362-0.728-0.576-0.707-0.605
							c0.047-0.066,1.148,0.656,2.975,1.741c1.827,1.085,4.396,2.507,7.284,3.986c2.889,1.476,5.539,2.747,7.453,3.682
							C128.057,350.483,129.227,351.097,129.196,351.163z"/>
					</g>
				</g>
				<g>
					<g>
						<path style="fill:#EB996E;" d="M132.957,361.01c-0.02,0.032-0.583-0.276-1.584-0.86c-1.072-0.64-2.493-1.488-4.212-2.515
							l-0.048-0.028l-0.026-0.057c-0.789-1.706-1.77-3.713-3.035-5.81c-0.64-1.031-1.342-2.145-2.274-3.005
							c-0.929-0.863-2.409-1.013-3.522-0.264c-0.239,0.135-0.527,0.42-0.561,0.513c0.027,0.043,0.024,0.051,0.041,0.119l0.072,0.222
							c0.045,0.147,0.102,0.297,0.156,0.446c0.217,0.596,0.452,1.184,0.683,1.761c0.472,1.151,0.929,2.266,1.368,3.339
							c0.889,2.12,1.705,4.065,2.418,5.766l-0.033-0.052c1.469,1.721,2.684,3.145,3.594,4.212c0.381,0.464,0.697,0.85,0.96,1.17
							c0.215,0.272,0.321,0.422,0.306,0.435c-0.015,0.013-0.15-0.111-0.393-0.358c-0.284-0.301-0.627-0.664-1.04-1.1
							c-0.944-1.038-2.203-2.423-3.725-4.097l-0.019-0.021l-0.014-0.031c-0.744-1.668-1.593-3.605-2.503-5.735
							c-0.448-1.071-0.913-2.186-1.394-3.337c-0.234-0.58-0.472-1.167-0.695-1.775c-0.056-0.152-0.114-0.303-0.164-0.464
							l-0.078-0.239c-0.028-0.087-0.047-0.241-0.052-0.357c0.093-0.316,0.236-0.38,0.364-0.531c0.136-0.121,0.278-0.229,0.427-0.324
							c0.642-0.408,1.402-0.619,2.155-0.554c0.757,0.049,1.445,0.411,1.979,0.868c1.033,0.967,1.706,2.084,2.355,3.144
							c1.262,2.141,2.212,4.167,2.969,5.908l-0.074-0.085c1.683,1.085,3.074,1.982,4.123,2.659
							C132.451,360.61,132.977,360.978,132.957,361.01z"/>
					</g>
				</g>
			</g>
			<g>
				<g>
					<path style="fill:#EB996E;" d="M150.879,361.182c-0.024,0.072-0.859-0.162-2.197-0.538c-1.336-0.364-3.196-0.882-5.284-0.933
						c-2.085-0.047-3.939,0.538-5.095,1.248c-1.173,0.701-1.691,1.416-1.763,1.354c-0.044-0.019,0.379-0.839,1.564-1.664
						c1.165-0.83,3.117-1.51,5.304-1.459c2.182,0.055,4.067,0.648,5.384,1.103C150.113,360.763,150.901,361.118,150.879,361.182z"/>
				</g>
			</g>
			<g>
				<g>
					<path style="fill:#EB996E;" d="M149.535,356.461c0.119,0.089-0.326,0.863-0.757,1.856c-0.439,0.99-0.707,1.841-0.854,1.814
						c-0.137-0.021-0.09-0.968,0.377-2.023C148.762,357.05,149.427,356.374,149.535,356.461z"/>
				</g>
			</g>
		</g>
		<g>
			<g>
				<path style="fill:#263238;" d="M252.564,271.479c1.234-8.425,11.044-20.505,19.725-20.518
					c-4.976-7.213-5.052-17.362-0.186-24.646c3.35-5.013,8.752-8.699,11.043-14.256c2.592-6.287,0.603-13.39,0.85-20.167
					c0.362-9.92,5.523-18.979,10.549-27.596c4.602-7.89,10.216-16.539,19.274-18.477c5.731-1.226,11.674,0.583,17.055,2.874
					c25.746,10.965,45.768,34.076,52.638,60.759c1.645,6.388,2.747,13.298,7.198,18.234c4.714,5.228,12.971,8.064,14.385,14.903
					c1.014,4.904-2.133,9.834-1.661,14.816c0.396,4.174,8.213,16.34,10.015,20.141c3.105,6.548,1.982,13.623-1.179,20.146
					c-3.161,6.523-11.207,12.875-18.347,14.652l-79.803-26.592c-7.508,4.274-14.987,20.808-23.606,21.824
					c-8.619,1.016-19.136,4.768-27.428-4.307C254.394,293.757,251.33,279.904,252.564,271.479z"/>
			</g>
			<g>
				<path style="fill:#263238;" d="M384.887,192.105c-0.893,6.678,0.937,17.719,4.587,23.424c2.45,3.829,6.538,6.321,10.571,8.511
					c4.033,2.191,8.257,4.292,11.314,7.675c3.058,3.383,4.697,8.456,2.653,12.508c7.189,2.68,10.414,11.838,7.776,18.921
					c-2.638,7.083-9.87,11.847-17.424,13.263l-32.915-9.901l-7.228-42.002l18.999-32.4"/>
			</g>
			<g>
				<g>
					<path style="fill:#455A64;" d="M388.927,234.926c0.007-0.015,0.227,0.082,0.644,0.28c0.406,0.216,1.052,0.46,1.798,0.934
						c1.526,0.881,3.634,2.41,5.769,4.81c1.087,1.181,2.094,2.64,3.074,4.269c0.903,1.669,1.816,3.513,2.396,5.599
						c1.281,4.111,1.562,9.107,0.089,14.018l-0.12-0.301c1.895,1.056,3.724,2.433,5.355,4.069c4.202,4.168,6.603,9.586,7.178,14.655
						c0.56,5.108-0.656,9.736-2.356,13.171c-1.711,3.466-3.835,5.823-5.405,7.273c-0.802,0.715-1.447,1.243-1.916,1.559
						c-0.46,0.328-0.706,0.492-0.716,0.478c-0.01-0.015,0.215-0.208,0.652-0.561c0.446-0.341,1.067-0.892,1.84-1.623
						c1.515-1.483,3.569-3.849,5.213-7.285c1.634-3.406,2.785-7.961,2.211-12.955c-0.589-4.959-2.953-10.26-7.07-14.342
						c-1.598-1.602-3.386-2.952-5.237-3.988l-0.181-0.101l0.061-0.201c1.446-4.791,1.199-9.684-0.033-13.735
						c-0.555-2.054-1.439-3.876-2.311-5.529c-0.949-1.614-1.924-3.065-2.98-4.245c-2.072-2.397-4.124-3.952-5.608-4.875
						c-0.725-0.494-1.353-0.763-1.744-1.006C389.127,235.066,388.92,234.94,388.927,234.926z"/>
				</g>
			</g>
		</g>
		<g>
			<g>
				<path style="fill:#E8505B;" d="M291.559,278.422c0,0-14.707,4.472-19.862,11.971c-3.647,5.305-40.987,86.169-40.987,86.169
					l-56.683-17.043l-20.266,26.767l63.067,34.957c11.693,6.481,25.914,6.419,37.549-0.165l0,0
					c6.452-3.651,11.71-9.09,15.141-15.662l16.036-30.724L291.559,278.422z"/>
			</g>
			<g>
				<g>
					<path style="fill:#E8505B;" d="M276.509,454.548l8.851-38.149l-6.706-27.7c-4.314-14.264-8.017-37.498-3.324-56.211
						l15.676-53.812l17.236-7.926l39.441-6.784c1.517,0.506,41.243,11.725,41.243,11.725c5.5,1.277,7.707,2.154,7.707,2.154
						l4.555,29.458l-13.696,48.553l-5.965,48.377l13.103,50.315H276.509z"/>
				</g>
				<g>
					<g>
						<path style="fill:none;stroke:#FFFFFF;stroke-width:0.02;stroke-miterlimit:10;" d="M273.579,335.863"/>
					</g>
				</g>
				<g>
					<g>
						<path style="fill:none;stroke:#FFFFFF;stroke-width:0.02;stroke-miterlimit:10;" d="M365.993,339.421"/>
					</g>
				</g>
			</g>
			<g>
				<path style="fill:#FFBE9D;" d="M299.303,274.861l11.438-5.119l51.55,0.718l12.192,7.077c0,0-42.587,47.004-53.276,48.559
					C294.323,330.005,299.303,274.861,299.303,274.861z"/>
			</g>
			<g>
				<path style="fill:#E8505B;" d="M395.514,277.438c0,0,7.722,1.737,14.341,15.858c6.619,14.12,17.319,53.418,17.319,53.418
					l4.575-41.646l37.271,4.1l-7.214,99.532c0,0-13.189,19.127-35.252,17.362c-22.063-1.765-50.072-71.504-50.072-71.504
					L395.514,277.438z"/>
			</g>
			<g>
				<g>
					<path style="fill:#263238;" d="M421.357,397.568c-0.009-0.001-0.011-0.082-0.008-0.241c0.008-0.19,0.018-0.422,0.029-0.705
						c0.04-0.663,0.094-1.566,0.163-2.708c0.142-2.352,0.422-5.751,0.812-9.946c0.777-8.391,2.199-19.948,3.94-32.681
						c1.741-12.738,3.221-24.278,4.09-32.654c0.436-4.188,0.772-7.579,0.976-9.925c0.11-1.138,0.197-2.039,0.261-2.7
						c0.033-0.282,0.059-0.512,0.081-0.701c0.021-0.158,0.036-0.238,0.045-0.238c0.009,0.001,0.012,0.083,0.008,0.242
						c-0.008,0.19-0.018,0.421-0.029,0.705c-0.04,0.662-0.094,1.566-0.163,2.708c-0.142,2.352-0.422,5.75-0.812,9.945
						c-0.776,8.391-2.199,19.949-3.941,32.687c-1.741,12.733-3.22,24.272-4.09,32.648c-0.436,4.188-0.772,7.579-0.976,9.925
						c-0.11,1.139-0.197,2.04-0.261,2.7c-0.032,0.282-0.059,0.513-0.081,0.701C421.382,397.488,421.366,397.568,421.357,397.568z"/>
				</g>
			</g>
			<g>
				<g>
					<path style="fill:#263238;" d="M231.354,398.04c-0.033,0.014-0.178-0.251-0.413-0.745c-0.24-0.491-0.539-1.224-0.866-2.146
						c-0.656-1.841-1.34-4.477-1.632-7.456c-0.285-2.98-0.12-5.7,0.171-7.632c0.144-0.967,0.297-1.744,0.438-2.272
						c0.135-0.529,0.227-0.818,0.262-0.81c0.084,0.018-0.142,1.2-0.334,3.126c-0.195,1.924-0.299,4.602-0.018,7.537
						c0.288,2.934,0.904,5.542,1.464,7.393C230.983,396.889,231.432,398.007,231.354,398.04z"/>
				</g>
			</g>
			<g>
				<g>
					<path style="fill:#263238;" d="M237.622,398.964c-0.029,0.021-0.261-0.244-0.657-0.743c-0.402-0.496-0.937-1.249-1.555-2.207
						c-1.24-1.914-2.732-4.719-3.883-8.014c-1.144-3.3-1.715-6.426-1.931-8.696c-0.11-1.135-0.158-2.058-0.151-2.696
						c0-0.638,0.018-0.99,0.054-0.991c0.088-0.003,0.152,1.402,0.463,3.642c0.308,2.239,0.928,5.31,2.058,8.568
						c1.137,3.254,2.556,6.047,3.705,7.993C236.871,397.77,237.693,398.911,237.622,398.964z"/>
				</g>
			</g>
			<g>
				<g>
					<path style="fill:#263238;" d="M281.746,310.038c0.017,0.005-0.048,0.283-0.188,0.807c-0.158,0.568-0.37,1.329-0.636,2.285
						c-0.575,2.032-1.384,4.885-2.377,8.391c-1.937,7.091-4.633,16.939-5.924,28.09c-0.645,5.568-0.775,10.93-0.219,15.752
						c0.513,4.826,1.577,9.089,2.626,12.608c1.054,3.522,2.052,6.33,2.735,8.272c0.329,0.936,0.591,1.681,0.787,2.237
						c0.176,0.513,0.26,0.786,0.243,0.792c-0.017,0.006-0.134-0.254-0.341-0.755c-0.219-0.548-0.511-1.282-0.879-2.204
						c-0.742-1.922-1.794-4.714-2.898-8.235c-1.097-3.517-2.207-7.799-2.75-12.662c-0.587-4.858-0.469-10.271,0.179-15.864
						c1.297-11.204,4.058-21.061,6.087-28.131c1.033-3.537,1.916-6.384,2.537-8.348c0.305-0.944,0.548-1.696,0.73-2.257
						C281.63,310.3,281.728,310.033,281.746,310.038z"/>
				</g>
			</g>
			<g>
				<g>
					<path style="fill:#263238;" d="M385.968,375.617c-0.008,0.004-0.054-0.079-0.135-0.244c-0.091-0.194-0.206-0.437-0.349-0.739
						c-0.313-0.69-0.747-1.648-1.298-2.864c-0.551-1.249-1.256-2.765-2.007-4.554c-0.722-1.808-1.542-3.858-2.446-6.121
						c-0.88-2.278-1.726-4.818-2.697-7.523c-0.425-1.373-0.864-2.792-1.317-4.254c-0.224-0.732-0.452-1.475-0.683-2.227
						c-0.215-0.757-0.402-1.533-0.609-2.315c-1.676-6.236-3.105-13.243-3.525-20.709c-0.456-7.454,0.253-14.657,2.155-20.865
						c1.782-6.25,4.915-11.378,8.255-14.96c3.337-3.621,6.814-5.71,9.304-6.824c1.256-0.546,2.256-0.914,2.953-1.094
						c0.323-0.09,0.582-0.163,0.788-0.221c0.178-0.047,0.271-0.066,0.273-0.058c0.002,0.009-0.085,0.046-0.258,0.109
						c-0.202,0.07-0.456,0.159-0.771,0.269c-0.685,0.212-1.667,0.609-2.9,1.178c-2.445,1.161-5.853,3.276-9.118,6.888
						c-3.27,3.579-6.326,8.651-8.067,14.848c-1.859,6.159-2.547,13.291-2.095,20.699c0.417,7.416,1.824,14.395,3.469,20.616
						c0.201,0.78,0.4,1.549,0.596,2.309c0.226,0.751,0.45,1.493,0.67,2.224c0.443,1.46,0.872,2.879,1.288,4.25
						c0.95,2.704,1.775,5.245,2.631,7.528c0.876,2.27,1.671,4.327,2.371,6.14c0.725,1.797,1.402,3.323,1.924,4.583
						c0.513,1.232,0.917,2.202,1.208,2.902c0.124,0.311,0.223,0.561,0.302,0.76C385.947,375.523,385.976,375.613,385.968,375.617z"
						/>
				</g>
			</g>
			<g style="opacity:0.3;">
				<g>
					<path d="M371.763,330.535c-4.872,23.049-4.938,46.76,3.451,68.774c0.487,1.277,2.412,5.817,3.777,5.884
						c1.731,0.085,2.552-2.069,2.852-3.776c0.616-3.508,0.992-9.282,1.608-12.79c0.771-4.393,1.816-14.563,1.816-14.563
						s-4.03-9.223-5.802-14.169c-3.287-9.177-6.066-17.936-7.602-28.633"/>
				</g>
			</g>
			<g>
				<g>
					<path style="fill:#263238;" d="M367.784,419.829c0.015,0.01-0.119,0.217-0.388,0.602c-0.304,0.424-0.701,0.978-1.197,1.669
						c-0.267,0.365-0.559,0.766-0.876,1.2c-0.335,0.427-0.735,0.861-1.146,1.344c-0.843,0.947-1.738,2.088-2.916,3.171
						c-0.572,0.56-1.17,1.145-1.792,1.755c-0.629,0.604-1.351,1.157-2.063,1.77c-1.402,1.257-3.064,2.389-4.778,3.625
						c-3.523,2.332-7.614,4.58-12.152,6.383c-4.563,1.745-9.097,2.858-13.27,3.525c-2.099,0.249-4.089,0.541-5.971,0.564
						c-0.939,0.03-1.845,0.112-2.717,0.092c-0.87-0.028-1.707-0.054-2.507-0.079c-1.6-0.001-3.031-0.235-4.292-0.362
						c-0.629-0.077-1.218-0.127-1.753-0.214c-0.528-0.105-1.014-0.202-1.457-0.291c-0.832-0.173-1.5-0.313-2.01-0.419
						c-0.458-0.101-0.696-0.163-0.692-0.18c0.004-0.018,0.25,0.01,0.714,0.078c0.514,0.082,1.186,0.189,2.023,0.322
						c0.444,0.074,0.93,0.156,1.458,0.245c0.535,0.072,1.123,0.107,1.75,0.17c1.258,0.099,2.683,0.306,4.273,0.283
						c0.795,0.014,1.626,0.03,2.491,0.046c0.866,0.009,1.765-0.083,2.697-0.122c1.868-0.041,3.841-0.347,5.922-0.607
						c4.136-0.688,8.628-1.806,13.153-3.536c4.501-1.788,8.564-4.004,12.074-6.296c1.708-1.216,3.367-2.326,4.77-3.56
						c0.712-0.602,1.436-1.143,2.068-1.735c0.626-0.597,1.228-1.17,1.803-1.719c1.187-1.059,2.096-2.176,2.955-3.1
						c0.419-0.471,0.828-0.894,1.174-1.31c0.329-0.423,0.632-0.812,0.908-1.167c0.527-0.665,0.949-1.199,1.272-1.606
						C367.607,420.006,367.77,419.819,367.784,419.829z"/>
				</g>
			</g>
			<g>
				<g>
					<path style="fill:#263238;" d="M359.65,404.576c0.035,0.007-0.014,0.394-0.133,1.092c-0.11,0.7-0.344,1.699-0.698,2.916
						c-0.701,2.433-2.034,5.714-4.139,8.974c-2.116,3.255-4.566,5.812-6.5,7.447c-0.966,0.82-1.783,1.442-2.376,1.828
						c-0.588,0.394-0.922,0.597-0.943,0.568c-0.055-0.077,1.223-0.977,3.074-2.672c1.853-1.689,4.221-4.246,6.308-7.454
						c2.075-3.214,3.441-6.421,4.225-8.802C359.258,406.092,359.558,404.558,359.65,404.576z"/>
				</g>
			</g>
		</g>
		<g>
			<g>
				<g>
					<path style="fill:#E8505B;" d="M341.497,139.445c13.954,0.095,27.603,7.973,34.665,20.009
						c7.062,12.035,7.283,27.793,0.56,40.021c-2.292,4.169-5.588,8.116-10.118,9.569c1.542-23.915-7.99-48.319-25.333-64.857"/>
				</g>
				<g>
					<path style="fill:#E8505B;" d="M357.828,143.057c-2.072-4.308,0.146-9.698,3.84-12.732c3.695-3.034,8.508-4.259,13.158-5.37
						c4.65-1.11,9.467-2.263,13.244-5.194c-0.544,7.49-2.406,15.197-7.254,20.933c-4.848,5.735-13.246,8.931-20.168,6.017"/>
				</g>
				<g>
					<path style="fill:#E8505B;" d="M362.631,147.991c-3.182,1.339-6.976,0.502-9.824-1.449c-2.848-1.951-4.885-4.874-6.557-7.895
						c-2.053-3.711-3.666-7.72-4.213-11.925s0.028-8.631,2.109-12.326c5.475,5.832,11.503,10.732,14.633,18.093
						c1.838,4.324,1.615,11.257-0.356,15.522"/>
				</g>
				<g>
					<g>
						<path style="fill:#263238;" d="M378.135,172.241c0.036-0.005,0.131,0.489,0.272,1.391c0.076,0.45,0.155,1.003,0.206,1.649
							c0.056,0.646,0.146,1.38,0.162,2.197c0.091,1.631,0.062,3.58-0.101,5.735c-0.192,2.152-0.535,4.51-1.103,6.94
							c-0.588,2.427-1.343,4.687-2.142,6.695c-0.825,1.998-1.678,3.751-2.493,5.167c-0.382,0.722-0.793,1.337-1.134,1.889
							c-0.336,0.554-0.656,1.012-0.926,1.38c-0.533,0.741-0.84,1.139-0.87,1.119c-0.029-0.021,0.222-0.459,0.7-1.23
							c0.244-0.383,0.536-0.854,0.847-1.42c0.315-0.562,0.701-1.186,1.059-1.914c0.768-1.427,1.578-3.18,2.371-5.168
							c0.766-1.998,1.499-4.237,2.081-6.638c0.561-2.405,0.915-4.734,1.131-6.862c0.187-2.131,0.254-4.061,0.211-5.681
							c0.008-0.811-0.056-1.542-0.084-2.186c-0.023-0.645-0.072-1.197-0.117-1.649C378.127,172.75,378.1,172.246,378.135,172.241z"
							/>
					</g>
				</g>
				<g>
					<g>
						<path style="fill:#263238;" d="M375.013,145.422c0.022,0.027-0.368,0.338-1.108,0.882c-0.796,0.437-1.989,1.078-3.611,1.398
							c-3.218,0.733-7.864,0.58-12.77-0.728l-0.146-0.039l-0.033-0.149c-0.067-0.299-0.138-0.621-0.21-0.944
							c-0.526-2.595-0.65-5.154-0.33-7.439c0.29-2.289,1.083-4.28,2.1-5.705c0.982-1.466,2.183-2.283,2.967-2.833
							c0.855-0.463,1.331-0.699,1.347-0.667c0.016,0.032-0.428,0.33-1.234,0.836c-0.736,0.593-1.867,1.429-2.775,2.871
							c-0.944,1.402-1.673,3.331-1.93,5.561c-0.285,2.223-0.151,4.727,0.365,7.272c0.07,0.317,0.14,0.632,0.206,0.925l-0.179-0.188
							c4.811,1.29,9.397,1.502,12.549,0.875c1.596-0.267,2.774-0.841,3.586-1.216C374.559,145.652,374.99,145.395,375.013,145.422z"
							/>
					</g>
				</g>
				<g>
					<g>
						<path style="fill:#263238;" d="M379.109,132.463c0.015,0.095-1.463,0.302-3.755,0.981c-1.148,0.332-2.485,0.823-3.929,1.455
							c-1.434,0.655-2.97,1.465-4.497,2.455c-1.518,1.005-2.874,2.091-4.047,3.144c-1.156,1.072-2.14,2.102-2.903,3.022
							c-1.537,1.831-2.317,3.103-2.398,3.051c-0.031-0.019,0.143-0.348,0.485-0.931c0.333-0.588,0.886-1.398,1.627-2.353
							c0.735-0.961,1.705-2.033,2.862-3.142c1.174-1.09,2.544-2.206,4.088-3.228c1.553-1.007,3.122-1.818,4.59-2.459
							c1.478-0.618,2.848-1.08,4.023-1.371c1.172-0.298,2.135-0.482,2.807-0.553C378.733,132.455,379.104,132.427,379.109,132.463z"
							/>
					</g>
				</g>
				<g>
					<g>
						<path style="fill:#263238;" d="M362.417,147.872c0.017,0.004,0.004,0.107-0.039,0.301c-0.033,0.197-0.125,0.475-0.267,0.826
							c-0.29,0.696-0.903,1.65-1.978,2.501c-1.071,0.822-2.65,1.544-4.495,1.451c-1.847-0.063-3.76-1.18-4.949-2.915
							c-1.189-1.735-1.541-3.923-0.932-5.669c0.579-1.755,1.823-2.967,2.976-3.668c1.181-0.695,2.293-0.923,3.046-0.941
							c0.379-0.006,0.671,0.008,0.867,0.049c0.196,0.03,0.296,0.055,0.294,0.072c-0.005,0.054-0.417-0.003-1.145,0.081
							c-0.724,0.079-1.77,0.353-2.867,1.052c-1.072,0.704-2.207,1.877-2.714,3.501c-0.534,1.607-0.2,3.611,0.905,5.229
							c1.11,1.613,2.858,2.648,4.549,2.73c1.697,0.113,3.201-0.522,4.245-1.267c1.047-0.77,1.681-1.647,2.016-2.294
							C362.269,148.262,362.364,147.857,362.417,147.872z"/>
					</g>
				</g>
				<g>
					<g>
						<path style="fill:#263238;" d="M350.293,148.122c-0.048,0.05-0.347-0.544,0.127-1.324c0.222-0.367,0.643-0.744,1.187-0.927
							c0.54-0.196,1.166-0.231,1.786-0.187c2.496,0.177,4.311,1.15,4.243,1.265c-0.055,0.145-1.896-0.58-4.278-0.745
							c-1.179-0.12-2.202,0.191-2.636,0.805C350.258,147.59,350.375,148.115,350.293,148.122z"/>
					</g>
				</g>
				<g>
					<g>
						<path style="fill:#263238;" d="M344.147,114.396c0.098,0.045-1.105,1.461-1.526,4.277c-0.23,1.393-0.261,3.081-0.237,4.963
							c0.023,1.877,0.107,3.945,0.533,6.054c0.949,4.2,2.666,7.814,4.271,10.124c0.812,1.164,1.528,2.067,2.035,2.677
							c0.508,0.611,0.823,0.916,0.799,0.945c-0.06,0.075-1.422-1.102-3.133-3.407c-1.718-2.314-3.509-5.934-4.482-10.235
							c-0.436-2.165-0.505-4.266-0.502-6.156c0.002-1.887,0.071-3.61,0.354-5.029c0.265-1.423,0.734-2.518,1.143-3.212
							C343.812,114.701,344.127,114.38,344.147,114.396z"/>
					</g>
				</g>
				<g>
					<g>
						<path style="fill:#263238;" d="M349.329,126.259c0.053-0.039,0.617,0.592,1.406,1.709c0.789,1.115,1.785,2.732,2.657,4.634
							c0.873,1.903,1.441,3.717,1.757,5.047c0.315,1.332,0.406,2.174,0.343,2.187c-0.162,0.038-0.842-3.271-2.573-7.017
							C351.204,129.069,349.188,126.358,349.329,126.259z"/>
					</g>
				</g>
				<g>
					<g>
						<path style="fill:#263238;" d="M347.637,132.49c0.105-0.089,1.788,1.615,3.995,3.593c2.199,1.987,3.96,3.639,3.858,3.754
							c-0.089,0.101-1.998-1.37-4.209-3.369C349.061,134.477,347.521,132.586,347.637,132.49z"/>
					</g>
				</g>
				<g>
					<g>
						<path style="fill:#FAFAFA;" d="M373.808,155.951c0.005,0.006-0.045,0.054-0.144,0.141c-0.141,0.12-0.286,0.243-0.44,0.375
							c-0.381,0.327-0.963,0.764-1.707,1.268c-1.484,1.011-3.684,2.211-6.295,3.073c-2.614,0.854-5.098,1.192-6.892,1.258
							c-0.897,0.035-1.626,0.028-2.126-0.009c-0.202-0.014-0.392-0.028-0.576-0.041c-0.132-0.012-0.2-0.021-0.2-0.028
							c0-0.007,0.07-0.012,0.202-0.014c0.184,0.001,0.374,0.001,0.577,0.002c0.5,0.012,1.225-0.003,2.116-0.057
							c1.782-0.103,4.241-0.462,6.835-1.309c2.59-0.855,4.783-2.024,6.279-2.998c0.75-0.485,1.342-0.902,1.738-1.209
							c0.163-0.12,0.316-0.234,0.464-0.343C373.745,155.984,373.803,155.946,373.808,155.951z"/>
					</g>
				</g>
				<g>
					<g>
						<path style="fill:#FAFAFA;" d="M379.699,168.053c0.004,0.006-0.046,0.054-0.146,0.14c-0.142,0.118-0.289,0.24-0.445,0.37
							c-0.385,0.323-0.97,0.757-1.715,1.262c-1.486,1.011-3.673,2.232-6.26,3.168c-2.59,0.93-5.053,1.385-6.843,1.555
							c-0.895,0.087-1.623,0.126-2.125,0.123c-0.203-0.001-0.394-0.001-0.579-0.002c-0.132-0.003-0.202-0.008-0.202-0.015
							c0-0.007,0.069-0.016,0.201-0.027c0.184-0.012,0.374-0.024,0.576-0.038c0.5-0.022,1.224-0.083,2.112-0.188
							c1.777-0.207,4.216-0.682,6.788-1.605c2.568-0.93,4.75-2.121,6.25-3.095c0.751-0.486,1.347-0.901,1.746-1.203
							c0.164-0.119,0.318-0.231,0.468-0.339C379.635,168.085,379.694,168.048,379.699,168.053z"/>
					</g>
				</g>
				<g>
					<g>
						<path style="fill:#FAFAFA;" d="M378.063,185.706c0.008,0.012-0.143,0.122-0.424,0.312c-0.279,0.193-0.698,0.447-1.23,0.738
							c-1.062,0.583-2.606,1.264-4.399,1.735c-1.795,0.467-3.475,0.63-4.686,0.641c-0.606,0.007-1.096-0.009-1.434-0.041
							c-0.338-0.028-0.523-0.05-0.522-0.065c0.001-0.014,0.188-0.019,0.526-0.016c0.337,0.007,0.825,0.001,1.426-0.025
							c1.202-0.049,2.861-0.233,4.638-0.696c1.775-0.467,3.312-1.118,4.384-1.664c0.537-0.272,0.965-0.505,1.256-0.676
							C377.889,185.781,378.055,185.693,378.063,185.706z"/>
					</g>
				</g>
				<g>
					<g>
						<path style="fill:#FAFAFA;" d="M381.456,183.005c0.011,0.057-0.594,0.221-1.351,0.366c-0.757,0.146-1.379,0.218-1.39,0.162
							s0.594-0.22,1.351-0.366C380.823,183.021,381.445,182.949,381.456,183.005z"/>
					</g>
				</g>
				<g>
					<g>
						<path style="fill:#FAFAFA;" d="M371.533,203.76c0.008,0.053-1.015,0.21-2.281,0.115c-1.267-0.09-2.256-0.395-2.241-0.446
							c0.014-0.06,1.01,0.15,2.256,0.238C370.511,203.762,371.527,203.699,371.533,203.76z"/>
					</g>
				</g>
				<g>
					<g>
						<path style="fill:#FAFAFA;" d="M352.555,151.468c0.028,0.05-0.569,0.433-1.333,0.854c-0.764,0.422-1.406,0.723-1.434,0.672
							s0.569-0.433,1.333-0.855C351.885,151.718,352.527,151.417,352.555,151.468z"/>
					</g>
				</g>
				<g>
					<g>
						<path style="fill:#FAFAFA;" d="M347.589,140.971c0.026,0.064-1.44,0.503-2.947,1.585c-1.518,1.068-2.415,2.307-2.467,2.262
							c-0.02-0.014,0.177-0.341,0.574-0.812c0.395-0.471,1.005-1.073,1.773-1.62c0.768-0.545,1.538-0.923,2.112-1.141
							C347.208,141.026,347.582,140.947,347.589,140.971z"/>
					</g>
				</g>
				<g>
					<g>
						<path style="fill:#FAFAFA;" d="M356.597,152.597c-0.068-0.01,0.278-1.362,0.053-3.031c-0.206-1.672-0.885-2.891-0.822-2.918
							c0.021-0.012,0.218,0.274,0.446,0.786c0.229,0.51,0.471,1.255,0.582,2.105c0.109,0.851,0.064,1.632-0.027,2.184
							C356.738,152.276,356.621,152.603,356.597,152.597z"/>
					</g>
				</g>
				<g>
					<g>
						<path style="fill:#FAFAFA;" d="M387.538,119.982c0,0-0.351,0.452-1.096,1.167c-0.742,0.716-1.901,1.671-3.459,2.662
							c-1.559,0.99-3.52,1.993-5.751,2.973c-2.228,0.987-4.722,1.962-7.25,3.175c-2.522,1.217-4.83,2.606-6.632,4.23
							c-1.804,1.619-3.1,3.422-3.895,5.07c-0.792,1.655-1.103,3.129-1.188,4.149c-0.089,1.023-0.016,1.593-0.05,1.594
							c0,0-0.019-0.141-0.034-0.412c-0.027-0.271-0.022-0.672,0.003-1.188c0.061-1.029,0.352-2.525,1.136-4.206
							c0.786-1.674,2.083-3.506,3.899-5.15c1.814-1.65,4.137-3.053,6.67-4.275c2.538-1.218,5.036-2.187,7.263-3.163
							c2.23-0.969,4.189-1.953,5.75-2.922c1.56-0.969,2.726-1.901,3.482-2.596c0.377-0.349,0.665-0.625,0.852-0.822
							C387.43,120.076,387.538,119.982,387.538,119.982z"/>
					</g>
				</g>
				<g>
					<g>
						<path style="fill:#FAFAFA;" d="M384.834,131.851c0.006,0.004-0.04,0.082-0.133,0.227c-0.128,0.193-0.265,0.399-0.416,0.628
							c-0.359,0.546-0.921,1.31-1.653,2.222c-1.459,1.827-3.693,4.195-6.516,6.392c-2.83,2.191-5.678,3.768-7.81,4.728
							c-1.065,0.483-1.944,0.838-2.563,1.051c-0.259,0.09-0.493,0.172-0.711,0.247c-0.163,0.054-0.25,0.08-0.252,0.073
							c-0.002-0.007,0.08-0.045,0.238-0.112c0.214-0.087,0.443-0.18,0.696-0.284c0.608-0.235,1.476-0.61,2.529-1.108
							c2.109-0.991,4.929-2.58,7.744-4.759c2.808-2.186,5.046-4.524,6.53-6.321c0.744-0.897,1.322-1.645,1.701-2.176
							c0.163-0.22,0.31-0.419,0.448-0.604C384.77,131.917,384.828,131.847,384.834,131.851z"/>
					</g>
				</g>
				<g>
					<g>
						<path style="fill:#FAFAFA;" d="M343.093,117.799c0,0,1.233,0.47,3.031,1.605c1.796,1.127,4.106,2.999,6.13,5.543
							c2.015,2.552,3.31,5.23,3.996,7.236c0.694,2.009,0.87,3.317,0.87,3.317c-0.007,0.001-0.033-0.077-0.076-0.227
							c-0.055-0.205-0.113-0.422-0.177-0.658c-0.139-0.574-0.393-1.393-0.756-2.383c-0.718-1.982-2.023-4.624-4.021-7.156
							c-2.007-2.523-4.282-4.397-6.047-5.549c-0.881-0.579-1.62-1.013-2.147-1.28c-0.216-0.116-0.413-0.222-0.6-0.323
							C343.16,117.848,343.09,117.805,343.093,117.799z"/>
					</g>
				</g>
			</g>
			<g>
				<g>
					<g>
						<g>
							<path style="fill:#263238;" d="M292.942,155.403c0.391,5.3-3.109,10.035-6.636,14.011c-3.527,3.976-7.451,8.12-8.213,13.38
								c-1.351,9.322,7.775,17.976,5.893,27.205c-1.009,4.946-5.059,8.919-5.78,13.916c-0.698,4.832,1.892,9.562,5.102,13.241
								c3.21,3.679,6.928,3.141,9.767,7.113c2.991,4.184,7.806,8.478,12.318,10.948c10.228,5.601,22.503-2.503,27.437-3.957"/>
						</g>
					</g>
					<g>
						<g>
							<path style="fill:#263238;" d="M370.289,177.125c4.715-2.052,5.085-18.948-6.744-20.899
								c-4.745-0.783-8.697-3.098-12.686-5.783c-3.532-2.377-4.579-8.411-7.57-11.442c-7.335-7.436-18.787-10.518-28.863-7.769
								c-10.076,2.749-18.377,11.22-20.919,21.35c-1.718,6.846-0.545,14.939,4.851,19.489c6.263,5.28,15.548,4.107,23.573,2.465
								c8.025-1.642,17.108-3.263,23.808,1.45c4.041,2.842,6.357,7.465,8.827,11.743c2.47,4.279,5.57,8.647,10.241,10.255
								c0,0,3.556,8.358,0.653,14.176s3.414-4.104,3.414-4.104S380.391,187.577,370.289,177.125"/>
						</g>
					</g>
					<g>
						<g>
							<g>
								<g>
									<g>
										<g>
											<g>
												<g>
													<g>
														<g>
															<g>
																<g>
																	<g>
																		<g>
																			<g>
																				<path style="fill:#FFBE9D;" d="M310.374,295.706c-0.066-11.031,0.004-42.005,0-41.948
																					c0,0-17.522-2.949-21.103-25.826c-1.781-11.377-1.168-30.023-0.174-45.264
																					c0.895-13.718,10.022-30.531,23.69-29.055l42.663,10.884c4.152,0.448,7.27,3.999,7.179,8.175l0,0
																					l-2.597,105.953L310.374,295.706z"/>
																			</g>
																		</g>
																	</g>
																</g>
															</g>
														</g>
													</g>
												</g>
												<g>
													<g>
														<g>
															<g>
																<g>
																	<g>
																		<g>
																			<g>
																				<g>
																					<path style="fill:#263238;" d="M296.359,195.736c-0.058,1.549,1.205,2.875,2.822,2.965
																						c1.613,0.09,2.971-1.089,3.029-2.638c0.058-1.548-1.205-2.877-2.818-2.967
																						C297.775,193.006,296.418,194.188,296.359,195.736z"/>
																				</g>
																			</g>
																		</g>
																	</g>
																</g>
															</g>
														</g>
													</g>
													<g>
														<g>
															<g>
																<g>
																	<g>
																		<g>
																			<g>
																				<g>
																					<g>
																						<path style="fill:#263238;" d="M293.121,192.376c0.363,0.383,2.589-1.256,5.745-1.241
																							c3.153-0.03,5.465,1.599,5.809,1.213c0.168-0.17-0.201-0.862-1.208-1.599
																							c-0.991-0.733-2.683-1.448-4.649-1.444c-1.966,0.006-3.621,0.727-4.573,1.465
																							C293.273,191.514,292.943,192.205,293.121,192.376z"/>
																					</g>
																				</g>
																			</g>
																		</g>
																	</g>
																</g>
															</g>
														</g>
													</g>
												</g>
												<g>
													<g>
														<g>
															<g>
																<g>
																	<g>
																		<g>
																			<g>
																				<g>
																					<g>
																						<path style="fill:#263238;" d="M324.143,197.406c0.364,0.383,2.592-1.256,5.746-1.241
																							c3.152-0.03,5.466,1.599,5.809,1.213c0.168-0.171-0.197-0.861-1.208-1.598
																							c-0.991-0.734-2.682-1.449-4.648-1.445c-1.966,0.007-3.621,0.727-4.574,1.465
																							C324.298,196.543,323.966,197.234,324.143,197.406z"/>
																					</g>
																				</g>
																			</g>
																		</g>
																	</g>
																</g>
															</g>
														</g>
													</g>
												</g>
												<g>
													<g>
														<g>
															<g>
																<g>
																	<g>
																		<g>
																			<g>
																				<g>
																					<path style="fill:#263238;" d="M312.637,216.415c0.015-0.18-1.946-0.523-5.124-0.937
																						c-0.806-0.085-1.568-0.247-1.703-0.797c-0.188-0.583,0.151-1.451,0.543-2.388
																						c0.762-1.949,1.56-3.991,2.397-6.131c3.329-8.73,5.741-15.909,5.388-16.04
																						c-0.353-0.131-3.338,6.839-6.666,15.569c-0.801,2.153-1.568,4.205-2.297,6.169
																						c-0.307,0.915-0.834,1.953-0.425,3.162c0.216,0.603,0.806,1.041,1.323,1.181
																						c0.516,0.159,0.97,0.169,1.368,0.193C310.64,216.575,312.625,216.594,312.637,216.415z"/>
																				</g>
																			</g>
																		</g>
																	</g>
																</g>
															</g>
														</g>
													</g>
												</g>
												<g>
													<g>
														<g>
															<g>
																<g>
																	<g>
																		<g>
																			<g>
																				<path style="fill:#EB996E;" d="M310.374,253.757c0,0,15.383,1.026,30.646-8.102
																					c-0.258,0.055-8.434,15.898-30.349,13.503L310.374,253.757z"/>
																			</g>
																		</g>
																	</g>
																</g>
															</g>
														</g>
													</g>
												</g>
												<g>
													<path style="fill:#EB996E;" d="M313.548,225.525c-0.376-1.942,1.908-2.572,3.588-3.616
														c1.68-1.044,2.646-2.432,4.22-1.234c0.899,0.684,1.541,1.667,1.945,2.722c0.272,0.711,0.443,1.484,0.315,2.234
														c-0.155,0.912-0.735,1.699-1.406,2.335c-0.949,0.9-2.136,1.577-3.426,1.793c-1.29,0.215-2.683-0.063-3.71-0.872
														c-1.027-0.81-1.633-2.172-1.414-3.461"/>
												</g>
												<g>
													<g>
														<g>
															<g>
																<g>
																	<g>
																		<g>
																			<g>
																				<g>
																					<path style="fill:#263238;" d="M321.921,218.618c-0.513-0.031-0.527,3.395-3.465,5.82
																						c-2.932,2.433-6.583,2.04-6.611,2.519c-0.049,0.215,0.812,0.667,2.353,0.712
																						c1.512,0.055,3.721-0.425,5.518-1.909c1.792-1.487,2.566-3.475,2.686-4.88
																						C322.535,219.448,322.155,218.599,321.921,218.618z"/>
																				</g>
																			</g>
																		</g>
																	</g>
																</g>
															</g>
														</g>
													</g>
												</g>
											</g>
										</g>
									</g>
									<g>
										<g>
											<g>
												<g>
													<g>
														<g>
															<g>
																<g>
																	<path style="fill:#263238;" d="M323.674,190.355c0.309,0.858,3.462,0.459,7.163,0.913
																		c3.711,0.38,6.695,1.471,7.188,0.702c0.22-0.368-0.299-1.176-1.504-2.009c-1.195-0.832-3.103-1.625-5.325-1.877
																		c-2.223-0.248-4.258,0.1-5.609,0.646C324.227,189.274,323.542,189.947,323.674,190.355z"/>
																</g>
															</g>
														</g>
													</g>
												</g>
											</g>
										</g>
									</g>
									<g>
										<g>
											<g>
												<g>
													<g>
														<g>
															<g>
																<g>
																	<path style="fill:#263238;" d="M293.561,181.46c0.554,0.718,2.729-0.021,5.344-0.051
																		c2.613-0.121,4.827,0.492,5.339-0.256c0.224-0.364-0.123-1.082-1.089-1.763c-0.952-0.678-2.545-1.234-4.342-1.184
																		c-1.796,0.053-3.354,0.7-4.265,1.432C293.622,180.372,293.317,181.109,293.561,181.46z"/>
																</g>
															</g>
														</g>
													</g>
												</g>
											</g>
										</g>
									</g>
								</g>
							</g>
						</g>
					</g>
					<g>
						<g>
							<path style="fill:#263238;" d="M365.13,241.004c-6.289,1.268-6.85-1.933-11.549-6.301c-4.699-4.368-7.126-11.059-6.32-17.424
								c0.711-5.617,3.739-11.331,1.792-16.648c-2.575-7.029-12.427-9.191-15.042-16.205c-1.52-4.076-0.156-8.845-1.878-12.84
								c-1.62-3.757-5.572-5.92-9.419-7.311c-3.847-1.391-7.972-2.351-11.202-4.862c-3.23-2.511-5.244-7.249-3.161-10.769
								c17.061,2.044,33.876,6.13,49.973,12.142c3.732,1.394,7.653,3.069,9.86,6.386c2.335,3.51,2.223,8.046,2.027,12.257
								c-0.958,20.535-1.917,41.069-2.875,61.604"/>
						</g>
					</g>
				</g>
				<g>
					<g>
						<g>
							<path style="fill:#455A64;" d="M379.703,233.329c0.014,0.01,0.098-0.086,0.25-0.284c0.141-0.205,0.396-0.486,0.631-0.915
								c0.517-0.829,1.137-2.164,1.507-3.999c0.366-1.825,0.4-4.191-0.367-6.753c-0.715-2.557-2.496-5.303-5.322-7.158
								c-2.714-1.913-6.246-3.246-8.491-6.29c-1.12-1.486-1.594-3.416-1.242-5.37c0.306-1.962,1.203-3.886,1.99-5.934
								c1.749-4.098,1.765-9.217-0.295-13.654c-1.038-2.206-2.578-4.263-4.641-5.765c-2.048-1.549-4.549-2.347-7.015-2.908
								c-2.477-0.565-4.947-0.893-7.241-1.585c-2.287-0.684-4.474-1.709-6.064-3.317c-1.63-1.588-2.321-3.786-2.63-6
								c-0.312-2.212-0.478-4.507-1.077-6.649c-1.118-4.289-3.298-8.089-6.172-10.819c-2.873-2.747-6.393-4.324-9.716-4.82
								c-3.335-0.52-6.478,0.098-8.841,1.338c-2.389,1.216-4.047,2.902-5.114,4.427c-1.063,1.545-1.559,2.934-1.789,3.881
								c-0.237,0.95-0.222,1.471-0.222,1.471c0.148,0.062,0.179-2.146,2.329-5.123c1.083-1.446,2.728-3.033,5.047-4.153
								c2.291-1.142,5.29-1.679,8.479-1.14c3.174,0.518,6.531,2.07,9.248,4.719c2.726,2.638,4.798,6.304,5.854,10.452
								c0.566,2.072,0.711,4.256,1.024,6.559c0.297,2.264,1.058,4.774,2.877,6.549c1.763,1.788,4.1,2.866,6.478,3.584
								c2.403,0.726,4.881,1.052,7.306,1.607c2.412,0.548,4.763,1.31,6.645,2.734c1.912,1.386,3.357,3.302,4.34,5.375
								c1.946,4.193,1.972,8.973,0.321,12.91c-0.755,2.014-1.674,3.99-1.997,6.13c-0.382,2.128,0.192,4.392,1.441,5.994
								c2.495,3.281,6.132,4.558,8.765,6.387c2.738,1.751,4.435,4.285,5.186,6.74c0.788,2.445,0.817,4.734,0.518,6.517
								C381.079,231.682,379.552,233.265,379.703,233.329z"/>
						</g>
					</g>
				</g>
			</g>
			<g>
				<g>
					<g>
						<path style="fill:#263238;" d="M349.947,210.604c-5.178,11.918-6.138,25.619-2.672,38.142c1.036,3.741,2.465,7.62,1.581,11.4
							c-0.957,4.092-4.378,7.052-6.875,10.433c-4.297,5.82-5.972,13.502-4.486,20.582c1.485,7.08,6.106,13.442,12.379,17.044
							c0.661-3.761,4.16-6.325,7.61-7.96c3.451-1.635,7.264-2.848,9.895-5.614c2.632-2.767,3.376-7.839,0.317-10.124
							c8.804-2.3,13.793-12.757,11.94-21.666c-1.853-8.909-9.098-15.947-17.339-19.806"/>
					</g>
					<g>
						<path style="fill:#263238;" d="M359.335,299.409c-1.575,0.863-3.102,1.635-3.296,3.42c-0.228,2.094,1.78,5.771,2.502,7.75
							c1.411,3.872,0.348,8.527-2.605,11.402c-2.953,2.875-7.635,3.813-11.468,2.299c2.817,0.216,5.208-2.533,5.458-5.347
							c0.251-2.814-1.114-5.531-2.794-7.803c-1.679-2.273-3.713-4.292-5.137-6.733c-2.899-4.968-7.204-18.484-3.89-26.055"/>
					</g>
				</g>
				<g>
					<g>
						<path style="fill:#455A64;" d="M367.338,284.855c-0.01-0.015,0.176-0.172,0.541-0.456c0.367-0.281,0.898-0.707,1.569-1.271
							c1.333-1.132,3.225-2.845,5.141-5.316c1.904-2.458,3.853-5.719,4.871-9.717c1-3.965,1.073-8.699-0.645-13.132
							c-0.855-2.209-2.131-4.166-3.618-5.844c-1.471-1.693-3.075-3.168-4.579-4.601c-1.506-1.432-2.927-2.824-4.104-4.271
							c-1.181-1.449-2.073-2.96-2.69-4.424c-1.28-2.925-1.331-5.637-0.882-7.35c0.228-0.86,0.514-1.493,0.748-1.894
							c0.239-0.4,0.371-0.604,0.387-0.594c0.068,0.032-0.542,0.836-0.937,2.534c-0.377,1.687-0.272,4.313,1.022,7.157
							c0.625,1.422,1.517,2.892,2.686,4.297c1.17,1.41,2.588,2.778,4.1,4.197c1.51,1.422,3.132,2.898,4.635,4.615
							c1.517,1.699,2.841,3.72,3.719,5.991c1.765,4.558,1.67,9.4,0.625,13.44c-1.066,4.077-3.083,7.366-5.047,9.826
							c-1.977,2.472-3.923,4.156-5.302,5.246c-0.694,0.542-1.248,0.944-1.636,1.199
							C367.556,284.741,367.349,284.869,367.338,284.855z"/>
					</g>
				</g>
			</g>
		</g>
	</g>
</g>
<g id="Plant">
	<g>
		<g>
			<g>
				<path style="fill:#E8505B;" d="M79.943,404.289c2.528,3.167,6.968,1.786,8.931-0.367c1.963-2.154,2.662-5.141,3.291-7.986
					c1.436-6.502,2.867-13.318,1.091-19.736c-0.531-1.919-1.38-3.812-2.837-5.168c-1.457-1.357-3.612-2.082-5.501-1.454
					c-2.235,0.744-3.508,3.059-4.396,5.241c-2.61,6.415-3.765,13.417-3.353,20.33C77.36,398.378,77.954,401.739,79.943,404.289"/>
			</g>
		</g>
		<g style="opacity:0.2;">
			<g>
				<path d="M79.943,404.289c2.528,3.167,6.968,1.786,8.931-0.367c1.963-2.154,2.662-5.141,3.291-7.986
					c1.436-6.502,2.867-13.318,1.091-19.736c-0.531-1.919-1.38-3.812-2.837-5.168c-1.457-1.357-3.612-2.082-5.501-1.454
					c-2.235,0.744-3.508,3.059-4.396,5.241c-2.61,6.415-3.765,13.417-3.353,20.33C77.36,398.378,77.954,401.739,79.943,404.289"/>
			</g>
		</g>
		<g>
			<g>
				<path style="fill:#E8505B;" d="M89.69,420.521c3.67-2.196,8.122-2.732,12.377-2.301c2.286,0.232,4.688,0.76,6.335,2.363
					c1.646,1.603,2.127,4.575,0.451,6.147c-0.998,0.936-2.457,1.16-3.823,1.23c-3.3,0.169-6.995-0.181-9.504,1.968
					c-1.432,1.226-2.314,3.171-4.075,3.84c-1.724,0.655-3.772-0.257-4.805-1.785c-1.032-1.528-1.188-3.509-0.866-5.325
					C85.78,426.66,85.993,422.733,89.69,420.521z"/>
			</g>
		</g>
		<g>
			<g>
				<path style="fill:#E8505B;" d="M73.871,409.444c2.331-3.148,2.534-7.538,1.178-11.212c-1.356-3.674-4.089-6.701-7.171-9.118
					c-3.613-2.834-7.784-4.954-12.203-6.202c-1.739-0.491-3.564-0.85-5.348-0.566c-1.785,0.285-3.535,1.316-4.272,2.966
					c-1.09,2.44,0.278,5.23,1.709,7.486c2.521,3.975,5.356,7.751,8.469,11.283c2.504,2.841,5.343,5.62,8.958,6.747
					c3.615,1.127,7.272,0.738,8.99-1.828"/>
			</g>
		</g>
		<g>
			<g>
				<g>
					<path style="fill:#263238;" d="M82.931,454.279c0.044,0,0.08-0.541,0.115-1.519c0.038-1.102,0.085-2.487,0.141-4.134
						c0.083-1.741,0.206-3.814,0.545-6.085c0.338-2.265,0.935-4.734,1.743-7.251c0.843-2.505,1.919-4.8,3.227-6.665
						c1.298-1.872,2.857-3.265,4.352-4.106c1.489-0.856,2.847-1.251,3.791-1.448c0.954-0.159,1.488-0.269,1.485-0.311
						c-0.002-0.043-0.542-0.016-1.527,0.073c-0.974,0.127-2.393,0.465-3.966,1.303c-1.579,0.823-3.237,2.243-4.602,4.156
						c-1.377,1.906-2.494,4.253-3.352,6.803c-0.822,2.561-1.406,5.054-1.72,7.366c-0.313,2.308-0.39,4.401-0.417,6.153
						c-0.021,1.753,0.019,3.169,0.057,4.147C82.843,453.739,82.888,454.279,82.931,454.279z"/>
				</g>
			</g>
		</g>
		<g>
			<g>
				<g>
					<path style="fill:#263238;" d="M83.015,451.1c0.021-0.002,0.02-0.244-0.004-0.701c-0.034-0.525-0.078-1.186-0.131-1.997
						c-0.114-1.733-0.271-4.242-0.373-7.346c-0.236-6.206-0.241-14.792,0.198-24.258c0.446-9.47,1.289-18.015,2.161-24.163
						c0.201-1.54,0.413-2.928,0.619-4.144c0.192-1.219,0.356-2.269,0.524-3.121c0.14-0.801,0.254-1.453,0.345-1.971
						c0.072-0.452,0.1-0.692,0.079-0.697c-0.021-0.005-0.09,0.226-0.202,0.67c-0.121,0.512-0.273,1.158-0.46,1.951
						c-0.205,0.846-0.404,1.892-0.629,3.108c-0.239,1.214-0.482,2.6-0.711,4.139c-0.986,6.147-1.901,14.709-2.348,24.198
						c-0.44,9.486-0.365,18.093-0.015,24.307c0.159,3.108,0.383,5.618,0.571,7.348c0.101,0.808,0.183,1.466,0.248,1.989
						C82.95,450.865,82.994,451.102,83.015,451.1z"/>
				</g>
			</g>
		</g>
		<g>
			<g>
				<g>
					<path style="fill:#263238;" d="M82.015,434.553c0.043-0.004-0.011-0.745-0.146-2.086c-0.161-1.336-0.468-3.263-0.995-5.613
						c-0.549-2.344-1.286-5.121-2.357-8.122c-1.029-3.015-2.386-6.254-4.058-9.53c-3.284-6.598-7.514-11.895-11.107-15.115
						c-0.849-0.861-1.773-1.463-2.519-2.062c-0.385-0.286-0.727-0.573-1.071-0.797c-0.345-0.207-0.666-0.4-0.964-0.578
						c-1.159-0.69-1.807-1.052-1.828-1.014c-0.091,0.142,2.594,1.502,6.082,4.775c3.474,3.266,7.594,8.531,10.851,15.074
						c1.658,3.248,3.02,6.456,4.072,9.439c1.094,2.97,1.869,5.716,2.47,8.033c0.579,2.323,0.949,4.226,1.183,5.546
						C81.837,433.825,81.973,434.557,82.015,434.553z"/>
				</g>
			</g>
		</g>
	</g>
</g>
<g id="Confetti">
	<g>
		<g>
			<path style="fill:#E8505B;" d="M234.587,205.759c-1.845-6.534-10.336-5.9-10.336-5.9l0.233,4.544
				c4.909-0.847,7.96,4.906,7.96,4.906L234.587,205.759z"/>
		</g>
	</g>
	<g>
		<g>
			<path style="fill:#E8505B;" d="M151.036,129.745c-4.584,0.486-5.132,6.242-5.132,6.242l3.068,0.364
				c-0.005-3.382,4.195-4.765,4.195-4.765L151.036,129.745z"/>
		</g>
	</g>
	<g>
		<g>
			<path style="fill:#E8505B;" d="M193.72,68.768c2.797,7.125,12.253,5.468,12.253,5.468l-0.768-5.072
				c-5.413,1.496-9.475-4.618-9.475-4.618L193.72,68.768z"/>
		</g>
	</g>
	<g>
		<g>
			<path style="fill:#E8505B;" d="M87.085,189.131c-4.584,0.486-5.132,6.242-5.132,6.242l3.068,0.364
				c-0.005-3.382,4.195-4.765,4.195-4.765L87.085,189.131z"/>
		</g>
	</g>
	<g>
		<g>
			<path style="fill:#E8505B;" d="M105.972,91.535c0.666-4.562-4.773-6.52-4.773-6.52l-1.114,2.882
				c3.278,0.835,3.576,5.246,3.576,5.246L105.972,91.535z"/>
		</g>
	</g>
	<g>
		<g>
			<path style="fill:#E8505B;" d="M27.602,161.545c-0.823,7.152,8.651,8.884,8.651,8.884l1.71-4.68
				c-5.684-0.514-6.505-7.21-6.505-7.21L27.602,161.545z"/>
		</g>
	</g>
	<g>
		<g>
			<path style="fill:#E8505B;" d="M252.779,127.032c4.603,0.263,6.075-5.328,6.075-5.328l-2.968-0.856
				c-0.543,3.338-4.911,4.023-4.911,4.023L252.779,127.032z"/>
		</g>
	</g>
</g>
</svg>
